HIERARCHY
ROOT Hips
{
     OFFSET 1.88212 96.90440 -13.34250
     CHANNELS 6 Xposition Yposition Zposition Zrotation Xrotation Yrotation
     JOINT Spine
     {
          OFFSET 0.00000 11.89050 0.00000
          CHANNELS 3 Zrotation Xrotation Yrotation
          JOINT Spine1
          {
               OFFSET -0.00000 25.65740 0.12766
               CHANNELS 3 Zrotation Xrotation Yrotation
               JOINT HEad
               {
                    OFFSET 0.00000 8.73416 0.01134
                    CHANNELS 3 Zrotation Xrotation Yrotation
                    End Site
                    {
                         OFFSET -0.29000 12.77420 2.51395
                    }
               }
               JOINT LeftShoulder1
               {
                    OFFSET 8.99000 -0.36225 -0.22000
                    CHANNELS 3 Zrotation Xrotation Yrotation
                    JOINT LeftArm
                    {
                         OFFSET 10.28270 -0.00338 0.32212
                         CHANNELS 3 Zrotation Xrotation Yrotation
                         JOINT LeftForeArm
                         {
                              OFFSET 32.76690 0.09914 -1.42434
                              CHANNELS 3 Zrotation Xrotation Yrotation
                              JOINT LeftHand
                              {
                                   OFFSET 27.56430 0.08536 1.02216
                                   CHANNELS 3 Zrotation Xrotation Yrotation
                                   End Site
                                   {
                                        OFFSET 16.74430 -0.60000 1.50291
                                   }
                              }
                         }
                    }
               }
               JOINT RightShoulder
               {
                    OFFSET -8.99000 -0.36225 -0.22000
                    CHANNELS 3 Zrotation Xrotation Yrotation
                    JOINT RightArm
                    {
                         OFFSET -10.28270 -0.00338 0.32212
                         CHANNELS 3 Zrotation Xrotation Yrotation
                         JOINT RightForeArm
                         {
                              OFFSET -32.89710 0.09914 -1.42434
                              CHANNELS 3 Zrotation Xrotation Yrotation
                              JOINT RightHand
                              {
                                   OFFSET -27.49210 0.08536 1.02216
                                   CHANNELS 3 Zrotation Xrotation Yrotation
                                   End Site
                                   {
                                        OFFSET -16.63120 -0.60000 1.50291
                                   }
                              }
                         }
                    }
               }
          }
     }
     JOINT LeftUpLeg
     {
          OFFSET 8.94580 -8.66707 0.10165
          CHANNELS 3 Zrotation Xrotation Yrotation
          JOINT LeftLeg
          {
               OFFSET 0.00000 -44.42270 1.37270
               CHANNELS 3 Zrotation Xrotation Yrotation
               JOINT LeftFoot
               {
                    OFFSET -0.25355 -42.09240 -1.46059
                    CHANNELS 3 Zrotation Xrotation Yrotation
                    JOINT LeftToes
                    {
                         OFFSET -0.04000 -4.41509 8.49910
                         CHANNELS 3 Zrotation Xrotation Yrotation
                         End Site
                         {
                              OFFSET 0.08000 -0.04745 9.77979
                         }
                    }
               }
          }
     }
     JOINT RightUpLeg
     {
          OFFSET -8.94580 -8.66707 0.10165
          CHANNELS 3 Zrotation Xrotation Yrotation
          JOINT RightLeg
          {
               OFFSET 0.00000 -44.42270 1.37270
               CHANNELS 3 Zrotation Xrotation Yrotation
               JOINT RightFoot
               {
                    OFFSET 0.25355 -42.09240 -1.46059
                    CHANNELS 3 Zrotation Xrotation Yrotation
                    JOINT RightToes
                    {
                         OFFSET 0.04000 -4.41509 8.49910
                         CHANNELS 3 Zrotation Xrotation Yrotation
                         End Site
                         {
                              OFFSET -0.08000 -0.13745 9.77979
                         }
                    }
               }
          }
     }
}
MOTION
Frames: 15
Frame Time: 0.01667
103.20796 89.38217 -102.92039 -4.51333 -1.53523 -46.53992 3.18484 12.62711 3.09446 0.00025 0.01119 0.02513 -3.34009 21.40087 6.04185 -17.56636 9.13881 18.76512 -101.12983 -56.68414 -82.25433 -37.68622 57.52087 -105.07561 7.87217 9.19729 0.57253 2.08192 17.33802 25.61850 68.65855 -26.98163 69.64143 28.30616 47.27750 111.88178 -5.68431 7.66900 -0.24040 -5.08521 -27.45955 15.21909 375.26105 34.77336 -371.74698 0.33906 -0.62204 0.28372 3.04789 -2.27318 -14.00437 -17.91407 -7.09523 -2.51823 -310.26758 61.11320 335.92963 6.60158 -0.19129 -0.05460 -2.67209 -29.15456 -2.36357 
105.31467 91.33056 -102.71805 -1.05489 -1.97709 -49.91186 -0.77701 11.28417 5.53004 0.00131 0.00899 0.02053 -4.14495 22.79864 6.16964 -10.40960 7.40983 7.26768 -107.26559 -67.40098 -82.06606 -36.74084 58.14750 -106.68714 7.83113 8.78964 -0.07445 8.70339 11.57498 14.17765 63.58373 -15.60768 66.69891 28.38590 47.07886 112.31859 -5.63095 8.84945 0.34261 -9.91090 -27.44913 10.40737 378.04663 28.73132 -373.42114 -8.16035 -0.66763 0.17526 4.31773 6.29005 -15.69029 -15.37163 -3.35853 -5.81963 -328.15018 55.94067 348.77966 -0.85415 -0.33372 0.19423 -0.12830 -38.31368 -8.90042 
107.15907 92.68129 -102.83667 2.08084 -2.49516 -53.18774 -4.43192 9.76007 7.80237 0.00153 0.00714 0.00738 -5.03283 23.72566 6.70076 -5.57719 5.28559 0.08405 -110.52654 -73.62886 -81.76680 -35.33479 57.91728 -108.38203 7.84957 8.66495 -0.33233 12.98891 6.78762 7.17838 60.24892 -8.12230 65.11728 28.58853 46.77950 112.45145 -5.61488 9.60503 0.92334 -14.45059 -27.37176 5.14429 380.46082 22.99934 -374.34174 -16.10574 -0.64332 0.09520 5.84386 11.82415 -13.04021 -12.88779 0.22750 -9.19285 -341.22705 48.45739 358.03745 -7.55440 -0.27126 0.18381 5.71807 -42.62317 -15.49082 
109.11887 93.37447 -103.15723 4.85212 -3.03692 -56.37901 -7.73809 8.13798 9.88576 0.00076 0.00496 0.00157 -5.93358 24.14014 7.58505 -2.06367 3.53354 -4.22535 -109.77191 -76.37687 -79.20753 -33.51877 56.75497 -109.92600 7.84680 8.49108 -0.35983 15.90586 3.29970 2.69433 58.06545 -3.30479 64.37020 28.82778 46.50784 112.49050 -5.70983 10.14076 1.35688 -18.44602 -27.24286 -0.40184 382.98169 17.69773 -374.93549 -23.69640 -0.62599 0.03180 5.58252 11.47462 -11.06003 -10.44512 3.62822 -12.58327 -350.97873 39.17891 364.36035 -12.04479 -0.21559 0.13801 4.36663 -46.01899 -20.77986 
110.96855 93.70434 -103.55402 7.28543 -3.56773 -59.48388 -10.70526 6.44189 11.77967 -0.00044 -0.00062 -0.00074 -6.75185 24.05479 8.77498 0.66045 2.35274 -6.48908 -105.54632 -76.24121 -74.45354 -33.61327 55.50094 -109.91273 8.02691 9.75092 0.23735 18.00148 1.06508 -0.22561 57.37235 -1.46090 63.73549 28.87178 46.24646 112.31461 -8.30167 13.54880 -0.26734 -21.61068 -27.07435 -5.98258 385.69681 13.00651 -375.34369 -31.01719 -0.59846 -0.03858 5.90406 5.81159 -8.67603 -8.05529 6.88159 -15.96226 -357.70459 28.76978 368.72946 -14.93292 -0.14827 0.09649 -0.98937 -48.33038 -23.47957 
112.62256 93.29489 -103.95988 8.79595 -4.24910 -62.66472 -13.44477 5.33028 13.29696 -0.01212 0.01617 -0.02775 -7.65431 24.00081 10.05895 2.80368 1.63537 -7.21109 -101.35006 -74.14368 -70.48149 -33.81621 54.42530 -107.79794 8.94950 11.68531 0.23531 18.47713 1.41605 -4.97111 59.88042 0.97019 65.91383 28.55846 46.37871 110.83360 -8.31289 16.50873 -5.68252 -23.39183 -26.24816 -11.02534 387.06915 9.10700 -374.16333 -30.13410 0.03252 -0.01357 1.99539 2.54752 -4.25744 -5.86714 10.54006 -18.83039 -361.28320 17.32363 370.51620 -14.95614 -0.02171 -0.01011 -2.72756 -47.27237 -21.37806 
114.15712 92.81649 -104.26649 9.42000 -4.99166 -65.79868 -15.93284 4.79158 14.37745 -0.01023 0.01727 -0.02914 -8.67819 23.99703 11.36687 4.46920 1.33924 -6.77141 -98.37888 -71.82904 -68.31449 -35.46090 53.70297 -103.35644 10.57347 14.00816 -1.07319 19.12414 2.00674 -7.79136 62.34896 2.61687 67.17168 27.52906 45.58002 108.75388 -5.26194 19.29695 -12.79541 -23.79078 -24.77460 -15.50599 388.29413 5.85337 -371.92136 -28.75410 0.09311 -0.01353 1.95514 5.38570 3.31328 -3.90849 14.61217 -21.37948 -362.59015 5.40883 370.74771 -13.20659 0.08058 -0.09434 -2.40757 -43.80376 -16.06638 
115.61012 92.19776 -104.48898 9.20254 -5.71106 -68.79639 -18.14352 4.84526 14.99927 -0.00744 0.01745 -0.02854 -9.76499 23.80589 13.08418 5.72594 1.34415 -5.43129 -96.23190 -69.55198 -67.35069 -37.07294 52.82598 -99.28204 12.23567 16.08316 -2.32689 19.82043 2.76953 -9.02421 64.78909 3.68187 67.74956 25.67883 43.96978 106.34137 -1.71145 19.19280 -14.47421 -22.96983 -22.69059 -19.50100 389.27191 3.17814 -368.68527 -26.83596 0.10474 -0.02399 0.10986 8.49657 9.75929 -2.17121 19.05048 -23.74940 -362.10425 -6.46279 370.09241 -10.54835 0.14842 -0.15564 -1.71857 -38.50808 -9.32524 
116.92905 91.45721 -104.63454 6.58095 -6.16769 -70.99228 -19.07073 6.72451 15.09476 0.00357 0.00168 0.00426 -10.96123 23.94269 14.97200 5.58956 2.26887 -3.39095 -95.89627 -68.07362 -68.77731 -37.72425 52.39852 -96.52097 13.69300 17.44461 -3.52017 20.21547 3.95599 -6.79515 67.10297 2.62122 67.08443 21.80271 39.65813 102.68729 2.68770 13.52723 -4.36780 -19.68430 -18.76557 -22.76327 388.41928 1.99393 -362.59695 -23.65831 0.06567 -0.06542 -3.92920 10.53884 12.51615 -0.83946 24.46374 -25.41642 -358.59729 -16.73290 366.89059 -7.88201 0.20947 -0.20755 -0.11278 -29.85235 0.19766 
118.11236 90.64745 -104.74580 2.08437 -6.21699 -72.24713 -18.85427 10.18748 14.55996 0.00348 0.00525 0.00977 -12.30947 24.29739 17.01954 5.36683 3.40735 -1.32034 -97.11727 -67.63557 -71.09415 -37.87055 52.45157 -94.47085 14.35061 17.47407 -4.51450 20.36394 5.41453 -4.71152 69.14550 2.37415 66.66499 16.18175 33.92662 98.82438 7.68707 11.31973 0.61326 -14.83212 -13.45341 -25.94100 385.72397 1.27810 -354.64020 -19.45999 -0.02777 -0.08733 -6.32518 13.33755 12.19863 0.11531 30.85797 -26.50619 -353.73117 -22.54305 364.05222 -12.47071 -0.20757 0.18411 4.37368 -25.29058 6.51820 
119.15922 89.87443 -104.83859 -1.90893 -6.15136 -73.18433 -18.68307 13.35118 13.88896 0.00322 0.00568 0.01001 -13.55876 24.54719 18.76243 5.18980 4.37646 0.40881 -99.80493 -67.85719 -74.36775 -37.73342 52.91060 -92.81237 15.00445 17.33272 -5.44391 20.36026 6.67848 -2.97281 70.98548 2.74262 66.44853 9.10768 27.52656 95.23166 14.12459 6.35868 11.13967 -9.73256 -9.15347 -28.91537 381.37045 0.29360 -345.67975 -14.44270 -0.14509 -0.09189 -8.41160 15.91133 9.56112 -0.39428 36.08589 -26.00574 -349.41397 -25.44143 361.94745 -13.17233 -0.01853 0.06110 4.69677 -22.33186 10.87832 
120.08214 89.16226 -104.88960 -5.42035 -6.01558 -73.82093 -18.52538 16.23655 13.09632 0.00346 0.00774 0.01142 -14.67880 24.69432 20.19775 5.03681 5.19052 1.82861 -103.65432 -68.36103 -78.49417 -37.38611 53.66787 -91.41388 15.24422 16.62563 -6.14740 20.27354 7.73767 -1.33265 72.63232 3.30362 66.46560 4.35392 24.35449 93.32494 16.99223 5.62865 14.15283 -4.68394 -5.80754 -31.44772 375.78690 -1.33905 -336.47263 -8.79404 -0.26539 -0.06612 -9.17120 18.24612 4.73867 -2.09487 40.06504 -23.92388 -345.35480 -26.21340 360.07047 -15.58065 -0.04824 0.04592 5.68044 -21.13168 13.33775 
120.91154 88.60789 -104.85304 -8.47290 -5.86169 -74.19190 -18.37544 18.85820 12.21019 0.00438 0.00966 0.01298 -15.64883 24.74947 21.33397 4.87563 5.86622 3.00520 -108.29861 -68.88870 -83.24917 -36.88459 54.62178 -90.23943 15.54803 15.97647 -6.73670 20.19857 8.60409 0.24415 74.00191 3.75808 66.69604 1.34634 22.93024 92.40210 19.07338 4.49640 17.63787 0.03349 -3.38667 -33.28151 369.58093 -3.72525 -327.64722 -2.82662 -0.35312 -0.01895 -8.96400 19.85864 -1.80180 -4.77187 42.73054 -20.39820 -341.46353 -25.47060 358.03107 -17.48582 -0.02260 0.02065 5.58040 -20.80827 14.65169 
121.68218 88.24998 -104.69459 -11.08806 -5.72371 -74.34336 -18.22969 21.22286 11.26324 0.00544 0.01109 0.01399 -16.45440 24.72350 22.18199 4.66880 6.41528 3.97782 -113.34835 -69.30386 -88.33522 -36.24831 55.69485 -89.30004 15.65415 15.11600 -7.12515 20.19800 9.30196 1.69829 75.05017 3.98824 67.07515 -0.40438 22.43676 91.97615 19.35834 5.01391 17.54090 4.33986 -1.72679 -34.19324 362.82114 -6.39318 -319.60843 3.27638 -0.41844 0.06530 -7.73769 20.00097 -9.81207 -8.18374 44.05766 -15.68239 -337.73792 -23.66027 355.53992 -20.01835 -0.01491 -0.00104 5.67306 -21.37367 15.11855 
122.42094 88.06138 -104.39188 -13.28634 -5.60858 -74.32684 -18.07256 23.33132 10.28673 0.00636 0.01181 0.01414 -17.09016 24.62813 22.75706 4.40624 6.84596 4.76684 -118.45087 -69.55371 -93.43587 -35.47522 56.82011 -88.61813 15.82612 14.37156 -7.41504 20.27681 9.85570 2.95907 75.80453 3.99307 67.51315 -1.30552 22.43171 91.86128 19.79392 5.10107 18.34598 8.25057 -0.66507 -34.06385 355.59134 -8.89239 -312.54083 9.22197 -0.43580 0.16126 -6.11573 18.09922 -18.61700 -12.01766 44.07876 -10.12563 -334.14066 -21.13650 352.41989 -22.39393 -0.00357 -0.01516 5.44987 -22.42514 14.96099 
